<?xml version="1.0" encoding="iso-8859-1"?>
<svg version="1.1" xmlns="http://www.w3.org/2000/svg" xmlns:xlink="http://www.w3.org/1999/xlink" x="0px" y="0px" viewBox="0 0 720 720" style="enable-background:new 0 0 48 48;" xml:space="preserve">

   <g id="g24" transform="matrix(2.9080869,0,0,-2.9080869,-1036.7346,1160.3607)">
      <g clip-path="url(#clipPath30)" id="g26">
         <text id="text34" style="font-variant:normal;font-weight:900;font-size:72px;font-family:Arial;-inkscape-font-specification:Arial-Black;writing-mode:lr-tb;fill:#000000;fill-opacity:1;fill-rule:nonzero;stroke:#000000;stroke-width:2.0571;stroke-linecap:butt;stroke-linejoin:miter;stroke-miterlimit:10;stroke-dasharray:none;stroke-opacity:1" transform="matrix(1,0,0,-1,356.02,167.33)">
            <tspan id="tspan32" y="0" x="0">R</tspan>
         </text>
      </g>
   </g>
   <g id="g36" transform="matrix(2.9080869,0,0,-2.9080869,-1022.7346,1160.3607)">
      <g clip-path="url(#clipPath42)" id="g38">
         <text id="text46" style="font-variant:normal;font-weight:900;font-size:72px;font-family:Arial;-inkscape-font-specification:Arial-Black;writing-mode:lr-tb;fill:#c55a11;fill-opacity:1;fill-rule:nonzero;stroke:#c55a11;stroke-width:2.0571;stroke-linecap:butt;stroke-linejoin:miter;stroke-miterlimit:10;stroke-dasharray:none;stroke-opacity:1" transform="matrix(1,0,0,-1,412.06,167.33)">
            <tspan id="tspan44" y="0" x="0 56.015999 108">API</tspan>
         </text>
      </g>
   </g>
   <g id="g48" transform="matrix(2.9080869,0,0,-2.9080869,-1036.7346,1160.3607)">
      <g clip-path="url(#clipPath54)" id="g50">
         <text id="text58" style="font-variant:normal;font-weight:900;font-size:72px;font-family:Arial;-inkscape-font-specification:Arial-Black;writing-mode:lr-tb;fill:#000000;fill-opacity:1;fill-rule:nonzero;stroke:#000000;stroke-width:2.0571;stroke-linecap:butt;stroke-linejoin:miter;stroke-miterlimit:10;stroke-dasharray:none;stroke-opacity:1" transform="matrix(1,0,0,-1,548.04,167.33)">
            <tspan id="tspan56" y="0" x="0">D</tspan>
         </text>
      </g>
   </g>
   <path id="path60" style="fill:none;stroke:#000000;stroke-width:8.72426;stroke-linecap:butt;stroke-linejoin:miter;stroke-miterlimit:10;stroke-dasharray:none;stroke-opacity:1" d="m 285.45621,348.68459 c -11.98133,10.23648 -52.69453,67.49671 -33.76289,86.25387 18.93165,18.78624 125.54212,17.27404 147.35277,26.40542 21.81065,9.10232 -5.14731,25.3876 -16.5761,28.2666 -11.42878,2.87901 -25.44576,-6.39778 -51.90935,-10.99257 -26.49268,-4.62386 -100.79429,-10.58543 -106.95944,-16.66334 -6.16515,-6.04881 -14.91849,-19.01889 -21.86883,-31.26192 -6.95031,-12.21397 -12.38845,-32.25067 -19.86222,-42.10909 -7.47379,-9.85841 -9.80026,-11.28339 -24.95138,-17.0414 -15.18022,-5.72892 -50.8043,1.77394 -66.100824,-17.39036 -15.325626,-19.1643 -32.919538,-71.27721 -25.794739,-97.56631 7.12482,-26.31819 29.342612,-47.7217 68.572693,-60.28463 39.2301,-12.53387 113.67712,-22.24687 166.83695,-14.97666 53.13075,7.27021 120.54021,47.95436 152.03479,58.62703 31.46551,10.70176 24.7769,10.0329 36.84546,5.46721 12.06857,-4.56571 36.84547,-24.60241 35.59498,-32.80322 -1.2214,-8.2008 -15.44194,-1.01783 -42.98151,-16.40161 -27.51052,-15.38379 -98.11886,-56.3878 -122.16875,-75.93014 -24.04986,-19.54235 -35.01336,-39.171935 -22.10145,-41.294853 12.88283,-2.122896 62.20398,9.305885 99.45657,28.528333 37.2526,19.25154 90.06345,68.45638 124.02992,86.89364 33.96645,18.40819 63.97791,15.47102 79.82697,23.67182 15.84908,8.20081 8.2008,13.58078 15.3547,25.50394 7.15389,11.95223 20.26938,34.83887 27.62683,46.18041 7.35745,11.34154 14.54044,14.97665 16.57609,21.86882 2.03566,6.89217 -0.0872,15.18021 -4.30396,19.42601 -4.18764,4.27488 -13.08639,3.75143 -20.88008,6.0779 -7.76459,2.32648 -10.23645,7.09573 -25.76564,7.91001 -15.55826,0.81426 -50.1645,-0.72704 -67.55485,-3.05349 -17.39038,-2.32648 -25.47484,-11.83592 -36.84546,-10.93442 -11.34154,0.93059 -19.86224,7.79368 -31.32009,16.40161 -11.45788,8.60794 -22.18872,28.35384 -37.45618,35.24601 -15.23836,6.89217 -30.21502,-3.66419 -54.03225,6.07791 -23.78816,9.713 -63.83252,30.36043 -88.72573,52.2874 -10.41095,0.14547 -36.81638,-5.20549 -49.37932,-7.27021 16.5761,-29.98239 39.05562,-46.03503 39.25917,-60.1974 0.2035,-14.19148 -26.08554,-35.1297 -38.06685,-24.92232 z" />
   <path id="path62" style="fill:none;stroke:#000000;stroke-width:8.72426;stroke-linecap:butt;stroke-linejoin:miter;stroke-miterlimit:10;stroke-dasharray:none;stroke-opacity:1" d="M 613.02312,199.81963 C 559.60157,145.26393 509.17534,106.3828 470.58503,80.675322 439.99195,63.488528 429.14479,56.887163 408.58461,53.368385 388.02443,49.820511 357.19871,48.889916 391.39781,73.986714 505.62746,123.715 508.33199,139.91306 578.03883,190.16478 c 10.6436,2.53003 26.87072,8.2299 34.98429,9.65485 z" />
   <path id="path64" style="fill:none;stroke:#000000;stroke-width:8.72426;stroke-linecap:butt;stroke-linejoin:miter;stroke-miterlimit:10;stroke-dasharray:none;stroke-opacity:1" d="m 55.833659,316.43392 c 7.590107,18.64083 19.018889,37.07811 23.613674,42.16726 -3.286146,6.57227 -30.302281,4.62386 -40.364255,-0.43622 -10.061974,-5.06007 -18.408191,-21.83972 -15.616427,-28.79006 2.791764,-6.95033 22.683079,-18.46636 32.367008,-12.94098 z" />
   <path id="path66" style="fill:none;stroke:#000000;stroke-width:8.72426;stroke-linecap:butt;stroke-linejoin:miter;stroke-miterlimit:10;stroke-dasharray:none;stroke-opacity:1" d="m 280.80326,488.67991 c -10.17829,5.96157 -47.69261,17.76839 -58.45253,18.55358 -10.75994,0.78518 -9.56762,-10.90533 -6.10698,-13.81341 3.43154,-2.90808 20.99637,-1.65761 26.69624,-3.66419 5.72892,-2.03565 1.04691,-4.30396 7.21204,-6.92124 6.07791,0.9015 26.14371,4.82742 30.65123,5.84526 z" />
</svg>
